<svg version="1.2" baseProfile="tiny-ps" xmlns="http://www.w3.org/2000/svg" viewBox="0 0 1671 215" width="1671" height="215">
	<title>aptiv-svg</title>
	<style>
		tspan { white-space:pre }
		.shp0 { fill: #f84018 } 
		.shp1 { fill: #000000 } 
	</style>
	<g id="Symbols">
		<g id="Header-Dark">
			<g id="Dark">
				<g id="Group-4">
					<g id="Group-6">
						<g id="aptiv-logo">
							<path id="Fill-1" fill-rule="evenodd" class="shp0" d="M1671 97.73C1671 119.32 1653.28 136.82 1631.42 136.82C1609.57 136.82 1591.85 119.32 1591.85 97.73C1591.85 76.14 1609.57 58.64 1631.42 58.64C1653.28 58.64 1671 76.14 1671 97.73ZM39.57 136.82C17.72 136.82 0 119.32 0 97.73C0 76.14 17.72 58.64 39.57 58.64C61.43 58.64 79.15 76.14 79.15 97.73C79.15 119.32 61.43 136.82 39.57 136.82Z" />
							<path id="Fill-2" fill-rule="evenodd" class="shp1" d="M1278.25 0L1335.98 0L1376.01 162.01L1389.05 162.01L1428.78 0L1485.33 0L1426.33 215L1337.54 215L1278.25 0ZM1094.82 0L1149.96 0L1149.96 215L1094.82 215L1094.82 0ZM966.01 49.38L902.56 49.38L902.56 215L847.41 215L847.41 49.38L784.27 49.38L784.27 0L966.01 0L966.01 49.38ZM602.83 0C652.93 0 681.98 25.9 681.98 70.76C681.98 116.23 652.93 142.73 602.83 142.73L556.57 142.73L556.57 215L501.42 215L501.42 0L602.83 0ZM595.7 94.86C617.35 94.86 625.65 87.02 625.65 71.67C625.65 56.31 617.35 48.78 595.7 48.78L556.57 48.78L556.57 94.86L595.7 94.86ZM341.02 215L325.61 159.29L254.45 159.29L239.33 215L185.67 215L249.11 0L332.42 0L395.88 215L341.02 215ZM266.31 115.33L313.46 115.33L296.55 53L283.51 53L266.31 115.33Z" />
						</g>
					</g>
				</g>
			</g>
		</g>
	</g>
</svg>